<svg xmlns="http://www.w3.org/2000/svg" width="24" height="25" viewBox="0 0 24 25"><g><g><path fill="#fff" d="M12 .25c6.616 0 12 5.383 12 12s-5.384 12-12 12-12-5.383-12-12 5.384-12 12-12zm0 23.077c6.107 0 11.077-4.97 11.077-11.077 0-6.108-4.97-11.077-11.077-11.077S.923 6.143.923 12.25 5.893 23.327 12 23.327z"/></g><g><path fill="#fff" d="M17.77 11.789h-5.308V6.712a.462.462 0 0 0-.923 0v5.077H6.23a.46.46 0 1 0 0 .923h5.308v5.538a.461.461 0 1 0 .923 0v-5.538h5.308a.46.46 0 1 0 0-.923z"/></g></g></svg>