<svg xmlns="http://www.w3.org/2000/svg" width="29" height="26" viewBox="0 0 29 26"><g><g><path fill="#ccc" d="M27.485 13.398a1.21 1.21 0 0 1 1.208 1.208v.506a1.21 1.21 0 0 1-1.208 1.208h-3.34c.154.48.057 1.07-.389 1.412l-2.618 2.32a7.856 7.856 0 0 1-2.797 1.421l-1.526.42a7.908 7.908 0 0 1-3.375.182c-.898-.149-2.222-.317-3.348-.056a2.679 2.679 0 0 0-1.394.841l.03.02c.522.354.66 1.067.305 1.59l-.773 1.14a1.141 1.141 0 0 1-1.59.303L1.38 22.32a1.146 1.146 0 0 1-.305-1.589l.774-1.14c.17-.253.43-.424.731-.48.288-.056.58 0 .826.157l1.967-2.388c.011-.013.022-.026.036-.038l.008-.008c.2-.19.413-.36.636-.513h-4.46a1.21 1.21 0 0 1-1.209-1.208v-.506a1.21 1.21 0 0 1 1.208-1.208h.982A11.919 11.919 0 0 1 6.177 5.56a11.915 11.915 0 0 1 6.662-3.278 2.02 2.02 0 0 1-.32-1.09c0-.226.1-.64.772-.888.336-.123.78-.192 1.247-.192.47 0 .912.07 1.248.192.672.248.773.662.773.887 0 .396-.117.773-.323 1.094a11.995 11.995 0 0 1 8.192 5.088.413.413 0 1 1-.683.47 11.165 11.165 0 0 0-8.475-4.827l-.12-.007a5.746 5.746 0 0 0-.227-.01l-.088-.003a9.751 9.751 0 0 0-.52-.002l-.117.002-.065.003c-.11.004-.222.01-.335.017h-.004a11.092 11.092 0 0 0-7.039 3.137 11.099 11.099 0 0 0-3.35 7.246h1.368a.414.414 0 0 1 0 .828h-3.18a.38.38 0 0 0-.38.38v.506c0 .21.17.38.38.38h25.892a.38.38 0 0 0 .38-.38v-.506a.38.38 0 0 0-.38-.38H6.703a.414.414 0 0 1 0-.828h18.97a11.069 11.069 0 0 0-1.007-3.943.415.415 0 0 1 .751-.349c.63 1.356.994 2.798 1.086 4.292zM14.538.94c-.697 0-1.115.173-1.19.27.004.391.203.754.526.972a4.39 4.39 0 0 1 .162-.008l.143-.005.118-.004.241-.002c.112 0 .227.001.342.005l.081.003c.08.003.16.006.242.011.323-.218.522-.58.527-.973-.076-.096-.494-.269-1.192-.269zM17.51 16.52a1.408 1.408 0 0 1-.387 1.647l.083-.002 2.448-.708 1.718-1.137h-3.973c.042.063.08.13.111.2zm-5.55-.2l.461.125.598-.125zm-3.61 7.684a.317.317 0 0 0-.085-.438l-5.005-3.4-.286-.195a.316.316 0 0 0-.439.084l-.773 1.141a.315.315 0 0 0 .084.438l5.291 3.594a.313.313 0 0 0 .438-.084zm14.898-6.926c.176-.13.173-.447.054-.623-.154-.227-.443-.117-.659.018l-2.583 1.71a.414.414 0 0 1-.115.052l-2.56.741a.426.426 0 0 1-.107.016l-1.817.04a.415.415 0 0 1-.203-.78l1.225-.65a.577.577 0 0 0 .268-.748.544.544 0 0 0-.197-.236.615.615 0 0 0-.469-.09l-3.592.748a.415.415 0 0 1-.192-.006l-2.742-.739-.183-.05c-.303-.086-.589-.166-.86-.16h-.017c-.872.024-1.783.426-2.502 1.105l-1.9 2.307 3.915 2.66a3.516 3.516 0 0 1 1.894-1.18c1.27-.295 2.702-.115 3.671.045a7.087 7.087 0 0 0 3.02-.163l1.524-.422a7.037 7.037 0 0 0 2.478-1.25l2.621-2.322a.215.215 0 0 1 .028-.023z"/></g></g></svg>