<svg xmlns="http://www.w3.org/2000/svg" width="21" height="21" viewBox="0 0 21 21"><g><g><path fill="#d7f4ff" d="M20.661 4.232c0-.748-.606-1.354-1.354-1.354H1.693C.945 2.878.34 3.484.34 4.232v2.864h20.322z"/></g><g><path fill="#fff" d="M.339 7.096v12.095c0 .748.606 1.355 1.354 1.355h17.614c.748 0 1.354-.607 1.354-1.355V7.096z"/></g><g><path fill="#9adcfe" d="M.339 6.588V19.19c0 .748.606 1.355 1.354 1.355h12.194C5.529 18.926 2.652 12.3 1.317 7.015z"/></g><g><path fill="#9adcfe" d="M2.879 2.878H1.693c-.748 0-1.354.606-1.354 1.354v2.864h1.186V4.232c0-.748.606-1.354 1.354-1.354z"/></g><g><path fill="#d7f4ff" d="M15.159.9h2.073v3.773h-2.073z"/></g><g><path fill="#9adcfe" d="M15.159.9h1.017v3.773h-1.017z"/></g><g><path fill="#d7f4ff" d="M3.768.9h2.073v3.773H3.768z"/></g><g><path fill="#9adcfe" d="M3.768.9h1.016v3.773H3.768z"/></g><g><path fill="#0d4159" d="M19.306 2.539c.934 0 1.694.76 1.694 1.694V19.19c0 .934-.76 1.693-1.694 1.693H1.693A1.695 1.695 0 0 1 0 19.19V4.233c0-.934.76-1.694 1.693-1.694h1.735V.899c0-.186.152-.337.34-.337H5.84c.186 0 .337.15.337.338v1.639h8.643V.899c0-.186.151-.337.338-.337h2.073c.188 0 .34.15.34.338v1.639zm-3.808 1.796h1.396V1.239h-1.396zm-11.393 0h1.396V1.239H4.105zM.677 6.758h19.645V4.233c0-.561-.455-1.017-1.016-1.017h-1.735v1.458a.339.339 0 0 1-.339.339H15.16a.34.34 0 0 1-.339-.34V3.217H6.178v1.458a.338.338 0 0 1-.337.339H3.767a.34.34 0 0 1-.339-.34V3.217H1.693c-.56 0-1.016.456-1.016 1.017zm19.645.677H.677V19.19c0 .56.456 1.016 1.016 1.016h17.613c.561 0 1.016-.455 1.016-1.016z"/></g><g><path fill="#ffcc64" d="M10.584 9.173c2.209 0 4 1.8 4 4.023 0 2.222-1.791 4.022-4 4.022-2.21 0-4-1.8-4-4.022 0-2.222 1.79-4.023 4-4.023z"/></g></g></svg>