<svg xmlns="http://www.w3.org/2000/svg" width="28" height="28" viewBox="0 0 28 28"><g><g><path fill="#fff" d="M23.546 4.754A13.411 13.411 0 0 1 27.5 14.3c0 3.606-1.404 6.996-3.954 9.546A13.411 13.411 0 0 1 14 27.8a13.411 13.411 0 0 1-9.546-3.954A13.411 13.411 0 0 1 .5 14.3c0-3.606 1.404-6.996 3.954-9.546A13.411 13.411 0 0 1 14 .8c3.606 0 6.996 1.404 9.546 3.954zM14 26.218c6.571 0 11.918-5.346 11.918-11.918 0-6.571-5.347-11.918-11.918-11.918-6.571 0-11.918 5.347-11.918 11.918 0 6.572 5.347 11.918 11.918 11.918z"/></g><g><path fill="#fff" d="M20.45 9.968a.79.79 0 0 0-1.119 0l-6.986 6.985-3.676-3.677a.791.791 0 0 0-1.119 1.119l4.236 4.236a.788.788 0 0 0 1.12 0l7.543-7.544a.79.79 0 0 0 0-1.119z"/></g></g></svg>