<svg xmlns="http://www.w3.org/2000/svg" width="20" height="20" viewBox="0 0 20 20"><g><g><path fill="#d7f4ff" d="M10 .328c5.345 0 9.678 4.333 9.678 9.677 0 5.345-4.333 9.677-9.678 9.677-5.345 0-9.678-4.332-9.678-9.677C.322 4.661 4.655.328 10 .328z"/></g><g><path fill="#f7f8fc" d="M.322 10.005c0 5.345 4.333 9.677 9.678 9.677V.328C4.655.328.322 4.66.322 10.005z"/></g><g><path fill="#0d4159" d="M7.43 13.377c-.27 0-.42-.326-.247-.53l2.495-2.96V5.505a.323.323 0 0 1 .645 0v4.5a.325.325 0 0 1-.076.208l-2.571 3.05a.318.318 0 0 1-.246.114z"/></g><g><path fill="#0d4159" d="M10 2.894a.323.323 0 0 1-.322-.323V.329a.322.322 0 1 1 .644 0V2.57a.323.323 0 0 1-.322.323z"/></g><g><path fill="#0d4159" d="M2.565 10.328H.322a.323.323 0 0 1 0-.646h2.243a.323.323 0 0 1 0 .646z"/></g><g><path fill="#0d4159" d="M10 20.005a.323.323 0 0 1-.322-.323V17.44a.322.322 0 1 1 .644 0v2.242a.323.323 0 0 1-.322.323z"/></g><g><path fill="#0d4159" d="M19.678 10.328h-2.243a.323.323 0 0 1 0-.646h2.243a.323.323 0 0 1 0 .646z"/></g><g><path fill="#0d4159" d="M0 10.005c0-5.514 4.486-10 10-10s10 4.486 10 10-4.486 10-10 10-10-4.486-10-10zm.646 0c0 5.158 4.196 9.355 9.354 9.355 5.158 0 9.354-4.197 9.354-9.355S15.158.65 10 .65C4.842.65.646 4.847.646 10.005z"/></g></g></svg>