<svg xmlns="http://www.w3.org/2000/svg" width="27" height="20" viewBox="0 0 27 20"><g><g><path fill="#ffcc64" d="M12.5 6.772c1.986-2.445 5.941-2.427 8.158-.216 2.413 2.406 1.6 6.494-.482 8.361-3.547-1.002-6.01-3.635-7.283-7.083z"/></g><g><path fill="#0d4159" d="M22.259 5.502c-.38 0-.574-.472-.312-.74L23.5 3.177a.436.436 0 1 1 .622.61L22.57 5.372a.435.435 0 0 1-.311.13z"/></g><g><path fill="#0d4159" d="M24.326 9.393a.436.436 0 0 1-.005-.871l2.238-.024h.005a.436.436 0 0 1 .005.87l-2.239.025z"/></g><g><path fill="#0d4159" d="M18.313 3.528a.436.436 0 0 1-.436-.43L17.85.865a.437.437 0 0 1 .43-.44c.25 0 .439.19.44.43l.028 2.233a.436.436 0 0 1-.431.44z"/></g><g><path fill="#0d4159" d="M13.445 4.087a.435.435 0 0 1-.389-.237l-1.055-2.066a.434.434 0 0 1 .19-.585.434.434 0 0 1 .585.189l1.056 2.065a.44.44 0 0 1-.387.634z"/></g><g><path fill="#0d4159" d="M25.864 15.163a.439.439 0 0 1-.18-.04l-1.989-.903a.435.435 0 0 1 .36-.792l1.99.903a.435.435 0 0 1-.18.832z"/></g><g><path fill="#0d4159" d="M23.368 16.623a.434.434 0 0 1-.304-.124l-.734-.716a.435.435 0 1 1 .607-.623l.736.716a.436.436 0 0 1-.305.747z"/></g><g><path fill="#0d4159" d="M11.547 5.094a.435.435 0 0 1-.305-.124l-.734-.716a.436.436 0 1 1 .608-.624l.735.717c.272.266.079.747-.304.747z"/></g><g><path fill="#0d4159" d="M25.727 12.148h-.038l-1.024-.088a.436.436 0 0 1 .075-.869l1.023.087a.439.439 0 0 1 .398.471.437.437 0 0 1-.434.4z"/></g><g><path fill="#0d4159" d="M23.754 7.27c-.447 0-.596-.624-.195-.825l.917-.46a.436.436 0 1 1 .39.779l-.917.46a.442.442 0 0 1-.195.046z"/></g><g><path fill="#0d4159" d="M20.476 3.854a.44.44 0 0 1-.392-.626l.45-.921a.435.435 0 1 1 .783.381l-.45.921a.437.437 0 0 1-.391.245z"/></g><g><path fill="#0d4159" d="M15.669 3.016a.436.436 0 0 1-.431-.377L15.1 1.624a.433.433 0 0 1 .373-.49.434.434 0 0 1 .489.373l.138 1.015a.44.44 0 0 1-.432.494z"/></g><g><path fill="#ffefd5" d="M18.85 5.58a1.851 1.851 0 1 1-.001 3.702 1.851 1.851 0 0 1 0-3.703z"/></g><g><path fill="#d7f4ff" d="M16.698 11.5c0-.055.01-.11.01-.165 0-2.942-2.339-5.362-5.173-5.362-2.04 0-3.799 1.277-4.622 3.066a2.534 2.534 0 0 0-1.187-.293c-1.31 0-2.395 1.084-2.607 2.379a4.03 4.03 0 0 0-2.684 3.834c0 2.279 1.776 4.191 3.967 4.191H16.64c1.993 0 3.63-1.779 3.63-3.857 0-2.086-1.567-3.788-3.572-3.793z"/></g><g><path fill="#9adcfe" d="M16.64 17.627H4.404c-1.941 0-3.552-1.5-3.897-3.426-.045.244-.07.497-.07.758 0 2.279 1.775 4.192 3.967 4.192H16.64c1.992 0 3.63-1.78 3.63-3.857 0-.264-.026-.521-.073-.77-.338 1.736-1.812 3.103-3.557 3.103z"/></g><g><path fill="#fff" d="M11.696 5.991c2.342 0 4.24 1.148 4.24 2.564 0 1.417-1.898 2.565-4.24 2.565-2.34 0-4.239-1.148-4.239-2.565 0-1.416 1.898-2.564 4.24-2.564z"/></g><g><path fill="#0d4159" d="M20.966 6.247c1.078 1.075 1.649 2.572 1.605 4.213-.046 1.715-.758 3.434-1.876 4.565.138 2.301-1.665 4.561-4.054 4.561H4.403C1.975 19.586 0 17.51 0 14.96c0-1.848 1.067-3.452 2.74-4.154.347-1.439 1.59-2.495 2.987-2.495.339 0 .668.055.982.166.99-1.799 2.843-2.939 4.826-2.939.488 0 .96.065 1.41.186.908-.734 2.049-1.167 3.314-1.233 1.78-.092 3.494.547 4.707 1.757zM16.64 18.715c1.73 0 3.194-1.567 3.194-3.422 0-1.879-1.378-3.354-3.138-3.358-.365 0-.425-.314-.425-.6 0-2.717-2.125-4.928-4.737-4.928-1.781 0-3.44 1.104-4.226 2.813a.44.44 0 0 1-.598.203 2.104 2.104 0 0 0-.984-.243c-1.054 0-1.99.867-2.18 2.015a.434.434 0 0 1-.281.34C1.81 12.054.87 13.4.87 14.958c0 2.071 1.584 3.756 3.532 3.756zm.497-7.625c1.564.184 2.857 1.321 3.35 2.842.727-.95 1.178-2.22 1.212-3.496.026-.99-.186-2.413-1.35-3.573-1.023-1.02-2.53-1.583-4.045-1.503a4.925 4.925 0 0 0-2.376.732c1.83.898 3.119 2.79 3.209 4.998z"/></g></g></svg>