<svg xmlns="http://www.w3.org/2000/svg" width="28" height="28" viewBox="0 0 28 28"><g><g><path fill="#fff" d="M23.296 4.754A13.405 13.405 0 0 1 27.25 14.3c0 3.607-1.403 6.994-3.954 9.545A13.408 13.408 0 0 1 13.75 27.8a13.408 13.408 0 0 1-9.546-3.955A13.405 13.405 0 0 1 .25 14.3c0-3.608 1.403-6.995 3.954-9.546A13.407 13.407 0 0 1 13.75.8c3.608 0 6.994 1.403 9.546 3.954zM22.21 22.76c4.665-4.665 4.665-12.256 0-16.92a11.885 11.885 0 0 0-8.46-3.506A11.885 11.885 0 0 0 5.29 5.84c-4.665 4.664-4.665 12.255 0 16.92a11.89 11.89 0 0 0 8.46 3.506 11.89 11.89 0 0 0 8.46-3.506z"/></g><g><path fill="#fff" d="M19.7 8.351a.766.766 0 0 0-1.087 0l-4.863 4.864-4.864-4.864a.765.765 0 0 0-1.085 0 .765.765 0 0 0 0 1.085l4.864 4.864-4.864 4.864a.765.765 0 0 0 0 1.085.774.774 0 0 0 .54.227.751.751 0 0 0 .54-.227l4.863-4.864 4.864 4.864a.774.774 0 0 0 .54.227.74.74 0 0 0 .54-.227.765.765 0 0 0 0-1.085L14.834 14.3 19.7 9.436a.765.765 0 0 0 0-1.085z"/></g></g></svg>