<svg xmlns="http://www.w3.org/2000/svg" width="24" height="31" viewBox="0 0 24 31"><g><g><path fill="#b3b3b3" d="M9.542 17.697v-1.398a4.623 4.623 0 0 1-1.895-3.203 2.104 2.104 0 0 1-2.019-2.097c0-.319.08-.632.231-.916a1.401 1.401 0 0 1 0-.54c.371-1.918.292-1.357.382-2.654.121-1.747.96-3.355 2.303-4.409a6.052 6.052 0 0 1 2.658-1.203v-.134c0-.631.513-1.144 1.143-1.144s1.143.513 1.143 1.144v.134c2.743.506 4.765 2.794 4.962 5.609.095 1.355.02.789.381 2.657.034.172.034.346.004.512.148.291.226.613.226.943a2.105 2.105 0 0 1-2.019 2.098 4.668 4.668 0 0 1-1.793 3.129v1.472l6.058 2.346.01.003c.106.045 2.628 1.115 2.628 4.062v1.532a.454.454 0 1 1-.908 0v-1.532c0-2.298-1.936-3.166-2.064-3.22l-3.664-1.419-1.61 3.225a.833.833 0 0 1-1.227.308l-1.619-1.15v3.562a.454.454 0 1 1-.908 0V21.85l-1.623 1.152a.833.833 0 0 1-1.227-.308l-1.61-3.225-3.66 1.419c-.118.05-2.064.915-2.064 3.22v5.638c0 .191.154.345.344.345h2.52v-4.677a.454.454 0 1 1 .908 0v4.677h5.806a.454.454 0 1 1 0 .908H2.105a1.254 1.254 0 0 1-1.253-1.253v-5.638c0-2.947 2.522-4.017 2.63-4.062a.069.069 0 0 0 .008-.003zm4.8.15v-1.074c-1.24.568-2.687.541-3.892.035v1.035l1.947 2.403zm.598.704l-1.887 2.329 1.873 1.33 1.532-3.071zm2.14-6.37a1.194 1.194 0 0 0 1.073-1.156 1.39 1.39 0 0 1-1.074.129zm.464-5.232c-.133-1.896-1.255-3.642-3.114-4.443.58 1.228.905 2.975.94 4.202l.015.59c.561.045.74.065 2.198.217zM12.58 1.177c0-.361-.47-.36-.47 0 .157-.006.312-.006.47 0zm-1.052.967c-.599.757-1.064 2.21-1.256 3.935-.04.376-.043.642-.057 1.156 2.444-.135 3.708-.025 4.26 0l-.014-.502c-.037-1.329-.47-3.539-1.3-4.589a5.415 5.415 0 0 0-1.633 0zm-4.42 5.371c1.487-.154 1.637-.172 2.196-.217.017-.604.02-.895.065-1.319.153-1.369.464-2.57.89-3.473-1.849.798-2.98 2.538-3.112 4.445zm.503 3.639a1.407 1.407 0 0 1-1.075-.132 1.193 1.193 0 0 0 1.075 1.159zm-.373-.856c.66-.015 3.754-1.402 8.312-.454 1.601.334 1.806.534 2.088.422a.506.506 0 0 0 .247-.216c.116-.202.076-.226-.193-1.611-4.546-.467-5.888-.49-10.695 0L6.75 9.716a.49.49 0 0 0 .488.582zm1.283 2.313a3.776 3.776 0 0 0 2.243 3.342c2.56 1.112 5.337-.655 5.404-3.338.004-.144.003.157.003-1.694-2.68-.687-5.082-.632-7.652-.002 0 1.799 0 1.583.002 1.692zm-.185 6.528l1.532 3.071 1.872-1.329-1.888-2.329zM19.72 24.96c.251 0 .454.203.454.454v4.677h2.668a.196.196 0 0 0 .196-.196v-2.136a.454.454 0 1 1 .908 0v2.136c0 .609-.495 1.104-1.104 1.104H13.46a.454.454 0 1 1 0-.908h5.806v-4.677c0-.251.203-.454.454-.454z"/></g></g></svg>