<svg xmlns="http://www.w3.org/2000/svg" width="31" height="32" viewBox="0 0 31 32"><g><g><path fill="#b3b3b3" d="M19.92 6.061h-9.042a.455.455 0 0 0 0 .908h9.042a.454.454 0 0 0 0-.908z"/></g><g><path fill="#b3b3b3" d="M30.445 16.62a.454.454 0 0 1-.454-.454V9.408H16.459a.454.454 0 1 1 0-.908H29.99V3.684a.474.474 0 0 0-.474-.473h-4.621v.893a.454.454 0 1 1-.908 0v-.893h-3.614v.893a.454.454 0 1 1-.908 0v-.893h-3.613v.893a.454.454 0 1 1-.908 0v-.893h-3.613v.893a.454.454 0 1 1-.908 0v-.893H6.81v.893a.454.454 0 1 1-.908 0v-.893H1.28a.474.474 0 0 0-.474.473V8.5H14.34a.454.454 0 1 1 0 .908H.807v20.38c0 .26.213.472.474.472h21.428V26.5h-3.924c-.34 0-.658-.167-.852-.447l-2.534-3.676-2.534 3.675a1.03 1.03 0 0 1-.852.448H6.87c-.837 0-1.517-.68-1.517-1.516v-.296a1.5 1.5 0 0 1 1.499-1.499h4.354a.138.138 0 0 0 .11-.054l2.454-3.12-4.474-6.493a1.031 1.031 0 0 1 .234-1.418 1.033 1.033 0 0 1 1.418.175l.006.007 4.444 5.656 4.444-5.656a1.034 1.034 0 0 1 1.659 1.236l-4.474 6.492 2.452 3.121a.14.14 0 0 0 .11.054h3.767c.213-.134.464-.21.734-.21h5.9v-4.694a.454.454 0 1 1 .908 0v5.147a.46.46 0 0 1-.133.321l-7.282 7.282a.457.457 0 0 1-.322.134H1.28c-.762 0-1.382-.62-1.382-1.383V3.684c0-.762.62-1.382 1.382-1.382h4.622V1.284a.454.454 0 1 1 .908 0v1.018h3.613V1.284a.454.454 0 1 1 .908 0v1.018h3.613V1.284a.454.454 0 0 1 .908 0v1.018h3.614V1.284a.454.454 0 1 1 .908 0v1.018h3.613V1.284a.454.454 0 1 1 .908 0v1.018h4.62c.764 0 1.383.62 1.383 1.382v12.482a.454.454 0 0 1-.454.454zm-6.83 7.74v5.258l5.734-5.732H24.09a.475.475 0 0 0-.474.474zm-9.256-5.094l.463-.59-4.577-5.824a.126.126 0 0 0-.172-.019.127.127 0 0 0-.03.174zm-4.404 6.326l-.64-1.495H6.854a.592.592 0 0 0-.591.591v.296a.61.61 0 0 0 .609.608zm10.8-12.585a.128.128 0 0 0-.202-.155l-8.521 10.844c-.2.255-.501.401-.825.401h-.904l.64 1.495h1.07a.126.126 0 0 0 .104-.055zm-.26 11.09h-.903c-.325 0-.625-.146-.826-.4l-2.278-2.9-.537.78 2.73 3.96a.129.129 0 0 0 .104.055h1.07zm2.213 1.495V24.36c0-.087.01-.184.025-.263h-1.25l-.64 1.495z"/></g></g></svg>