<svg xmlns="http://www.w3.org/2000/svg" width="23" height="24" viewBox="0 0 23 24"><g><g><path fill="#e6e6e6" d="M4.581 6.567a.337.337 0 0 0-.477 0L2.33 8.341a.337.337 0 1 0 .476.477l1.775-1.774a.337.337 0 0 0 0-.477z"/></g><g><path fill="#e6e6e6" d="M3.388 12.934l3.448-3.448a.337.337 0 1 0-.476-.477l-3.45 3.448a.339.339 0 0 0 0 .477.339.339 0 0 0 .478 0z"/></g><g><path fill="#e6e6e6" d="M3.77 17.248L9.018 12a.336.336 0 0 0 0-.476.336.336 0 0 0-.477 0l-5.248 5.247a.337.337 0 1 0 .477.476z"/></g><g><path fill="#e6e6e6" d="M5.843 19.873l5.247-5.247a.337.337 0 1 0-.476-.477l-5.248 5.247a.339.339 0 0 0 0 .477.339.339 0 0 0 .477 0z"/></g><g><path fill="#e6e6e6" d="M9.888 20.524l3.448-3.448a.337.337 0 1 0-.476-.477l-3.45 3.448a.34.34 0 0 0 0 .477.339.339 0 0 0 .478 0z"/></g><g><path fill="#e6e6e6" d="M14.081 21.028l1.774-1.774a.337.337 0 1 0-.476-.477l-1.775 1.775a.337.337 0 0 0 .477.476z"/></g><g><path fill="#e6e6e6" d="M1.11 23.5c-.592 0-1.072-.48-1.072-1.07V1.574C.038.619 1.192.142 1.866.817l.67.668C3.688.295 5.707.72 6.276 2.289a2.262 2.262 0 0 1 3.135 1.406A3.797 3.797 0 0 1 12.478 7.3a3.794 3.794 0 0 1 3.672 3.67 3.774 3.774 0 0 1 2.004.65.34.34 0 0 1 .09.468.339.339 0 0 1-.469.09 3.125 3.125 0 0 0-4.06.486l.748.749c1.253-1.446 3.631-.55 3.631 1.353 0 .623-.273 1.18-.715 1.563l.75.749a3.132 3.132 0 0 0 .612-3.86.337.337 0 1 1 .585-.333c.266.465.422.969.476 1.479 1.361.317 2.163 1.83 1.53 3.167 1.522.554 1.972 2.477.896 3.647l.494.494c.675.676.197 1.828-.757 1.828H10.602a.337.337 0 1 1 0-.673h11.363a.397.397 0 0 0 .281-.678L9.35 9.253l-7.96-7.96a.397.397 0 0 0-.678.28V22.43c0 .218.178.397.397.397H9.03a.336.336 0 1 1 0 .673zm12.12-11.32a1.395 1.395 0 0 0 .111-2.071 1.397 1.397 0 0 0-2.072.11zM9.557 8.509c.648-.524.693-1.49.111-2.071a1.395 1.395 0 0 0-2.07.11zm11.144 8.776a1.589 1.589 0 0 0-.89-2.218 3.812 3.812 0 0 1-1.208 2.488l3.148 3.147a1.59 1.59 0 0 0-.692-2.552.618.618 0 0 1-.358-.865zm-3.282-2.52c0-1.304-1.653-1.897-2.479-.874l1.96 1.96a1.39 1.39 0 0 0 .52-1.085zm-1.943-3.757c-.079-2.834-3.572-4.071-5.433-2.014l.748.748c.032-.038.065-.074.1-.11 1.38-1.378 3.737-.243 3.515 1.699.35-.165.712-.271 1.07-.323zm-3.672-3.672c-.078-2.762-3.525-4.12-5.433-2.014l.748.748c1.333-1.537 3.842-.418 3.616 1.587.337-.16.696-.267 1.07-.321zM5.66 2.56c-.38-1.135-1.829-1.452-2.648-.6l2.883 2.885a3.78 3.78 0 0 1 2.772-1.22 1.593 1.593 0 0 0-2.143-.707.616.616 0 0 1-.864-.358z"/></g></g></svg>