<svg xmlns="http://www.w3.org/2000/svg" width="20" height="21" viewBox="0 0 20 21"><g><g><path fill="#06121e" d="M17.91.62H5.76a.297.297 0 0 0 0 .594h12.15a.738.738 0 0 1 0 1.473h-2.825a.297.297 0 0 0 0 .595h2.478l-.713 4.58H2.88l-.713-4.58h11.73a.298.298 0 0 0 0-.595H1.822a.737.737 0 1 1 0-1.473h2.75a.297.297 0 0 0 0-.594h-2.75a1.331 1.331 0 1 0-.259 2.636l.77 4.947a.296.296 0 0 0 .293.252h.022l.14 1.288a.298.298 0 1 0 .591-.065l-.133-1.223h13.24l-.747 6.81H7.84a.297.297 0 0 0 0 .593h7.523l-.26 2.372c-.018.163.1.31.263.328l.032.002c.15 0 .279-.113.295-.265l.267-2.437h.045a.298.298 0 0 0 .296-.264l.782-7.139h.022a.296.296 0 0 0 .293-.25l.77-4.949a1.332 1.332 0 0 0 1.073-1.305c0-.734-.597-1.33-1.331-1.33z"/></g><g><path fill="#06121e" d="M15.3 19.156a.298.298 0 0 0-.328.263l-.095.87H4.854l-.486-4.43h2.284a.298.298 0 0 0 0-.595h-2.66l-.482-4.398a.297.297 0 0 0-.59.065l.51 4.663c.017.15.144.265.296.265h.045l.522 4.76c.016.15.143.265.295.265h10.555a.299.299 0 0 0 .296-.265l.124-1.135a.298.298 0 0 0-.263-.328z"/></g></g></svg>