<svg xmlns="http://www.w3.org/2000/svg" width="29" height="26" viewBox="0 0 29 26"><g><g><path fill="#ccc" d="M24.964 15.537c-2.167-1.062-5.14-1.759-8.367-1.966a.506.506 0 0 0-.065 1.011c3.1.198 5.936.86 7.987 1.864 1.947.954 3.02 2.128 3.02 3.307 0 1.3-1.33 2.608-3.648 3.593-2.49 1.058-5.811 1.641-9.353 1.641-2.608 0-5.13-.32-7.292-.927a.506.506 0 1 0-.273.976c2.25.631 4.866.964 7.565.964 7.859 0 14.014-2.744 14.014-6.247 0-1.586-1.275-3.084-3.588-4.216z"/></g><g><path fill="#ccc" d="M6.941 19.416a.506.506 0 1 1-1.013 0v-3.548c-.254.093-.502.191-.741.292-2.319.986-3.649 2.295-3.649 3.593 0 1.318 1.364 2.642 3.741 3.632a.508.508 0 0 1-.195.974.494.494 0 0 1-.194-.039C2.075 23.147.525 21.526.525 19.753c0-2.044 2.097-3.829 5.403-4.962V.507a.507.507 0 0 1 1.013 0v.169h4.221c.279 0 .506.226.506.506v.844h4.221c.28 0 .507.227.507.506V7.26a.508.508 0 0 1-.507.507h-4.727a.508.508 0 0 1-.507-.507v-.844H6.941v8.06c2.176-.616 4.777-.969 7.597-.969a.506.506 0 1 1 0 1.013c-2.763 0-5.392.354-7.597 1.013zm4.727-12.663h3.715V3.039h-3.715zM6.941 5.402h3.714V1.688H6.941z"/></g><g><path fill="#ccc" d="M20.447 19.078c0 .838-.681 1.52-1.52 1.52-.837 0-1.52-.682-1.52-1.52s.683-1.52 1.52-1.52c.839 0 1.52.682 1.52 1.52zm-2.025 0a.507.507 0 1 0 1.013-.001.507.507 0 0 0-1.013.001z"/></g></g></svg>