<svg xmlns="http://www.w3.org/2000/svg" width="16" height="9" viewBox="0 0 16 9"><g><g><path fill="#009245" d="M14.858.797a.477.477 0 0 0-.693 0L8.068 7.14 1.96.797a.478.478 0 0 0-.694 0 .524.524 0 0 0 0 .72L7.71 8.209a.47.47 0 0 0 .346.149c.12 0 .25-.05.347-.15l6.443-6.691a.513.513 0 0 0 .012-.72z"/></g><g><path fill="none" stroke="#009245" stroke-miterlimit="50" stroke-width=".58" d="M14.858.797a.477.477 0 0 0-.693 0L8.068 7.14v0L1.96.797a.478.478 0 0 0-.694 0 .524.524 0 0 0 0 .72L7.71 8.209a.47.47 0 0 0 .346.149c.12 0 .25-.05.347-.15l6.443-6.691a.513.513 0 0 0 .012-.72z"/></g></g></svg>