<svg xmlns="http://www.w3.org/2000/svg" width="179" height="45" viewBox="0 0 179 45"><defs><clipPath id="mry3a"><path d="M-1 41.136l59.762 5.747L63 2.807 3.238-2.94z"/></clipPath></defs><g><g><g><text dominant-baseline="text-before-edge" transform="translate(74 10)"><tspan fill="#06121e" font-family="'Avenir Black','Avenir-Black'" font-size="18" font-weight="700">Club Caddie</tspan></text></g></g><g><path fill="#fff" d="M58.539 23.91l-.173 1.801c-.027.096-.057.19-.078.286-.168.775-.305 1.557-.508 2.323-.663 2.486-1.797 4.748-3.354 6.791-2.366 3.1-5.376 5.35-9.021 6.732a19.487 19.487 0 0 1-6.583 1.275c-.5.01-1 .014-1.5.021 0 0-2.085-.08-4.72-1.073-.98-.37-3.012-1.025-4.05-1.204-1.234-.214-2.747.29-4.151.435-3.552.37-6.268-.003-6.268-.003-.095-.028-.19-.066-.285-.08a16.423 16.423 0 0 1-5.443-1.878c-3.7-2.065-6.317-5.086-7.84-9.044a16.258 16.258 0 0 1-1.082-5.466l-.032-1.365.169-1.747c.027-.095.065-.189.08-.286a16.177 16.177 0 0 1 1.519-4.775c2.035-4.06 5.176-6.914 9.408-8.55 2.196-.849 3.503-.86 5.85-.758 1.149.05 2.698.575 4.386.16 1.724-.424 4.12-2.768 6.317-3.595a19.635 19.635 0 0 1 6.614-1.28c.537-.01 1.074-.01 1.61-.013l1.636.157c.105.027.21.056.317.08.802.172 1.61.31 2.4.521a19.315 19.315 0 0 1 6.74 3.332c3.112 2.37 5.367 5.39 6.753 9.051a19.477 19.477 0 0 1 1.274 6.596c.01.52.01 1.038.015 1.556z"/></g><g/><g clip-path="url(#mry3a)"><path fill="#009245" d="M60.786 25.828c-.029.105-.063.208-.085.313-.184.846-.333 1.701-.555 2.537-.726 2.717-1.965 5.187-3.669 7.418-2.587 3.387-5.88 5.843-9.869 7.352a21.284 21.284 0 0 1-7.2 1.393c-.547.011-1.093.015-1.64.022 0 0-2.283-.087-5.164-1.172-1.073-.405-3.296-1.12-4.433-1.317-1.35-.233-3.005.316-4.54.475-3.887.403-6.858-.004-6.858-.004-.103-.03-.206-.072-.312-.088a17.988 17.988 0 0 1-5.954-2.052c-4.049-2.256-6.912-5.556-8.578-9.88a17.727 17.727 0 0 1-1.186-5.972l-.034-1.49.183-1.909c.03-.104.072-.207.09-.313a17.672 17.672 0 0 1 1.66-5.216c2.225-4.435 5.662-7.552 10.291-9.338 2.402-.927 3.832-.939 6.4-.828 1.257.056 2.951.63 4.798.177 1.886-.463 4.506-3.024 6.91-3.928A21.537 21.537 0 0 1 38.277.611c.587-.01 1.174-.01 1.761-.014l1.79.172c.115.03.231.062.346.087.877.19 1.763.34 2.627.57 2.697.724 5.153 1.953 7.374 3.642 3.405 2.588 5.871 5.887 7.39 9.887a21.272 21.272 0 0 1 1.394 7.206c.01.568.01 1.134.016 1.7zM28.837 8a23.991 23.991 0 0 1 3.307 2.462c.065.057.24.052.33.007 3.23-1.636 6.592-1.984 10.076-1.014 3.414.95 6.074 2.956 7.967 5.936 2.143 3.371 2.734 7.008 1.68 10.89-.707 2.601-1.995 4.872-3.986 6.686-3.635 3.308-7.894 4.411-12.676 3.311-2.944-.678-5.394-2.212-7.317-4.569.103.016-3.925-4.476-3.925-4.476s-1.019 3.897-1.064 4.335c-.045.437-.045.437.22.828.59.752 2.351 2.656 2.351 2.656s.987 1.098 1.54 1.588c2.074 1.834 4.503 2.972 7.192 3.594 2.11.488 4.237.631 6.387.36 4.102-.515 7.624-2.244 10.547-5.154 2.414-2.405 4.011-5.282 4.791-8.608.45-1.897.581-3.855.392-5.795-.308-3.172-1.357-6.085-3.24-8.659-3.592-4.909-8.464-7.414-14.536-7.544-2.336-.05-4.595.421-6.763 1.303a17.465 17.465 0 0 0-3.326 1.781c.032.05.038.073.053.082zm-4.789 31.087c-1.136-1.3-2.28-2.594-3.4-3.908-.217-.254-.426-.388-.765-.413-1.254-.09-2.506-.204-3.712-.6-5.996-1.977-8.914-8.982-6.09-14.628 2.225-4.452 7.428-6.793 12.208-5.457 4.838 1.161 7.164 5.261 7.164 5.261l.974-3.56s.121-.366.147-.503c.025-.132-.016-.417-.089-.53-.128-.202-.43-.476-.65-.7-3.626-3.694-8.123-5.058-13.31-4.009C9.12 11.532 4.196 18.555 5.135 26.042c.855 6.821 6.244 12.07 13.077 12.732 1.908.186 3.817.368 5.725.55.094.01.19.01.336.017l-.226-.255z"/></g><g><path fill="#25ba61" d="M39.191 14.806a8.064 8.064 0 0 0-6.839 3.644c-3.604 3.833-7.38 3.158-11.192.328a5.097 5.097 0 0 0-1.053-.683 2.879 2.879 0 0 0-.775-.298 5.044 5.044 0 0 0-6.465 4.784 5.044 5.044 0 0 0 8.89 3.323c4.897-3.344 7.485-1.398 11.097 2.086a8.11 8.11 0 0 0 1.311 1.275c.595.58 1.153.896 1.672.998a8.073 8.073 0 1 0 3.354-15.457z"/></g></g></svg>