<svg xmlns="http://www.w3.org/2000/svg" width="37" height="28" viewBox="0 0 37 28"><g><g><path fill="#b3b3b3" d="M14.396 17.875c.65.26 1.07.88 1.07 1.58v1.785c0 .618-.504 1.122-1.123 1.122h-1.158a.542.542 0 1 1 0-1.084h1.158a.038.038 0 0 0 .038-.038v-1.786a.613.613 0 0 0-.388-.572l-1.804-.722a1.116 1.116 0 0 1-.705-1.04v-.235a2.83 2.83 0 0 1-1.195.263c-.427 0-.832-.094-1.196-.263v.234c0 .461-.277.87-.705 1.041l-1.804.722a.613.613 0 0 0-.388.572v1.786c0 .021.017.038.037.038h4.635a.542.542 0 1 1 0 1.084H6.233a1.123 1.123 0 0 1-1.12-1.122v-1.786c0-.699.42-1.319 1.068-1.579l1.804-.722a.035.035 0 0 0 .024-.034v-1.107a2.849 2.849 0 0 1-.58-1.723v-1.738c0-1.257 1.283-2.28 2.86-2.28 1.576 0 2.86 1.023 2.86 2.28v1.738c0 .646-.217 1.243-.58 1.723v1.107c0 .016.01.03.023.034zm-2.332-5.323c0-.649-.812-1.197-1.774-1.197-.963 0-1.776.548-1.776 1.197v1.737a1.777 1.777 0 0 0 3.551 0z"/></g><g><path fill="#b3b3b3" d="M34.62 4.479a2.282 2.282 0 0 1 2.28 2.279v18.538a2.282 2.282 0 0 1-2.28 2.279H2.18a2.282 2.282 0 0 1-2.28-2.28V6.759a2.282 2.282 0 0 1 2.28-2.28h8.688a.542.542 0 1 1 0 1.085H2.18c-.66 0-1.196.536-1.196 1.195v18.538c0 .659.536 1.195 1.196 1.195h32.44c.66 0 1.196-.536 1.196-1.195V6.759c0-.66-.536-1.196-1.196-1.196H24.155v.616c0 .619-.503 1.122-1.122 1.122h-9.268a1.123 1.123 0 0 1-1.122-1.122V4.442c0-.62.503-1.122 1.122-1.122h1.775v-.038A2.862 2.862 0 0 1 18.4.424a2.862 2.862 0 0 1 2.858 2.858v.038h1.775c.62 0 1.122.503 1.122 1.122v.037zM23.032 6.216a.038.038 0 0 0 .038-.037V4.442a.038.038 0 0 0-.038-.038h-2.317a.542.542 0 0 1-.542-.542v-.58c0-.978-.796-1.774-1.775-1.774-.979 0-1.775.796-1.775 1.774v.58a.542.542 0 0 1-.542.542h-2.318a.038.038 0 0 0-.037.038v1.737c0 .02.017.037.037.037z"/></g><g><path fill="#b3b3b3" d="M18.41 2.74a.54.54 0 0 0-.547.537l-.006.58c-.003.3.237.544.536.547h.006a.542.542 0 0 0 .542-.537l.006-.579a.543.543 0 0 0-.537-.548z"/></g><g><path fill="#b3b3b3" d="M31.722 10.85c.62 0 1.122.504 1.122 1.122v1.159c0 .618-.503 1.12-1.122 1.12H18.978a1.122 1.122 0 0 1-1.12-1.12v-1.16c0-.617.502-1.12 1.12-1.12zm.038 1.122a.037.037 0 0 0-.038-.037H18.978a.037.037 0 0 0-.037.037v1.159c0 .02.017.037.037.037h12.744a.037.037 0 0 0 .038-.037z"/></g><g><path fill="#b3b3b3" d="M29.406 15.485H18.979a.541.541 0 1 0 0 1.084h10.427a.542.542 0 0 0 0-1.084z"/></g><g><path fill="#b3b3b3" d="M20.137 18.382h-1.158a.541.541 0 1 0 0 1.084h1.158a.542.542 0 0 0 0-1.084z"/></g><g><path fill="#b3b3b3" d="M27.668 18.382h-5.214a.542.542 0 1 0 0 1.084h5.214a.542.542 0 0 0 0-1.084z"/></g><g><path fill="#b3b3b3" d="M27.668 20.698h-5.214a.542.542 0 0 0 0 1.084h5.214a.542.542 0 1 0 0-1.084z"/></g><g><path fill="#b3b3b3" d="M20.137 20.698h-1.158a.542.542 0 1 0 0 1.084h1.158a.542.542 0 1 0 0-1.084z"/></g></g></svg>