<svg xmlns="http://www.w3.org/2000/svg" width="27" height="26" viewBox="0 0 27 26"><g><g><path fill="#ccc" d="M12.052 25.26a6.483 6.483 0 0 1-8.927-3.107l-2.032-4.571A6.482 6.482 0 0 1 7.012 8.48h14.194v-4.8c0-.496.32-.92.761-1.076V.38a.382.382 0 0 1 .762 0v2.158h2.285V.38a.382.382 0 0 1 .762 0v2.224c.443.157.762.58.762 1.077v10.512a5.701 5.701 0 0 1-3.058 5.059zM25.776 3.682a.38.38 0 0 0-.38-.381h-3.048a.382.382 0 0 0-.38.38v1.905h3.808zm0 2.666h-3.809v2.514a.38.38 0 0 1-.38.38H7.012A5.72 5.72 0 0 0 1.3 14.956c0 .807.165 1.586.491 2.318l2.031 4.57a5.722 5.722 0 0 0 7.877 2.743l11.428-6.007a4.943 4.943 0 0 0 2.65-4.385z"/></g><g><path fill="#ccc" d="M22.771 17.904l-11.428 6.007a4.959 4.959 0 0 1-6.826-2.377l-2.03-4.57a4.924 4.924 0 0 1-.426-2.009 4.957 4.957 0 0 1 4.951-4.95h2.031a.38.38 0 0 1 .381.38v12.187a.38.38 0 1 1-.76 0V10.765H7.011a4.195 4.195 0 0 0-3.83 5.89l2.031 4.57a4.196 4.196 0 0 0 5.776 2.012l11.428-6.007a3.423 3.423 0 0 0 1.835-3.037 3.431 3.431 0 0 0-3.427-3.428h-1.397v6.945a.38.38 0 1 1-.76 0v-7.326c0-.21.17-.38.38-.38h1.778a4.194 4.194 0 0 1 4.188 4.19 4.182 4.182 0 0 1-2.243 3.71z"/></g><g><path fill="#ccc" d="M17.524 10.766h-6.957a.38.38 0 1 1 0-.762h6.957a.38.38 0 1 1 0 .762z"/></g><g><path fill="#ccc" d="M17.524 12.53h-6.957a.38.38 0 1 1 0-.763h6.957a.38.38 0 1 1 0 .762z"/></g><g><path fill="#ccc" d="M17.524 14.293h-6.957a.38.38 0 1 1 0-.762h6.957a.38.38 0 1 1 0 .762z"/></g><g><path fill="#ccc" d="M17.524 16.057h-6.957a.38.38 0 1 1 0-.762h6.957a.38.38 0 1 1 0 .762z"/></g><g><path fill="#ccc" d="M16.207 19.584h-5.64a.38.38 0 1 1 0-.762h5.64a.38.38 0 1 1 0 .762z"/></g><g><path fill="#ccc" d="M17.524 17.82h-6.957a.38.38 0 1 1 0-.762h6.957a.38.38 0 1 1 0 .762z"/></g><g><path fill="#ccc" d="M12.852 21.348h-2.284a.38.38 0 1 1 0-.762h2.284a.38.38 0 1 1 0 .762z"/></g></g></svg>