<svg xmlns="http://www.w3.org/2000/svg" width="36" height="35" viewBox="0 0 36 35"><g><g><path fill="#e6e6e6" d="M36 17.5C36 27.165 28.165 35 18.5 35S1 27.165 1 17.5 8.835 0 18.5 0 36 7.835 36 17.5z"/></g><g opacity=".09"><g opacity=".09"><path d="M.556 17.49c0-9.65 7.85-17.5 17.5-17.5 9.649 0 17.5 7.85 17.5 17.5 0 5.2-2.282 9.875-5.895 13.083a5.034 5.034 0 0 0-.613-.369l-5.81-2.905a1.52 1.52 0 0 1-.845-1.368v-2.029c.134-.166.276-.354.423-.56a13.982 13.982 0 0 0 1.795-3.517 2.49 2.49 0 0 0 1.43-2.257v-2.432c0-.596-.217-1.173-.608-1.626v-3.203c.036-.357.162-2.366-1.292-4.025-1.265-1.443-3.312-2.174-6.085-2.174s-4.82.731-6.085 2.174c-1.454 1.658-1.328 3.668-1.293 4.024v3.203a2.5 2.5 0 0 0-.608 1.626v2.433c0 .755.339 1.46.92 1.936.555 2.177 1.699 3.825 2.122 4.384v1.986a1.53 1.53 0 0 1-.797 1.344l-5.427 2.96a4.869 4.869 0 0 0-.516.327C2.804 27.298.556 22.652.556 17.49z"/></g></g></g></svg>