<svg xmlns="http://www.w3.org/2000/svg" width="33" height="32" viewBox="0 0 33 32"><g><g><path fill="#b3b3b3" d="M30.902 13.419h-6.538a.599.599 0 1 0 0 1.199h5.46l1.74 16.196H1.258L3.3 14.618h5.47a.599.599 0 1 0 0-1.2H2.241L-.1 32.014h33z"/></g><g><path fill="#b3b3b3" d="M15.887 22.988c-1.123-1.198-4.721-5.488-6.22-12.593-.308-1.455-.376-2.85-.206-4.15.517-3.944 2.967-6.029 7.085-6.029 4.12 0 6.57 2.085 7.086 6.03.17 1.297.102 2.694-.205 4.15-1.514 7.173-5.171 11.481-6.256 12.63l-.015.013a.595.595 0 0 1-.277.761 6.539 6.539 0 0 0-.937.576.6.6 0 0 1-.71-.968 9.51 9.51 0 0 1 .388-.267c.084-.054.178-.1.267-.153zM10.65 6.401c-.152 1.165-.088 2.425.19 3.747 1.36 6.447 4.605 10.542 5.707 11.784 1.1-1.24 4.346-5.334 5.707-11.784.278-1.322.342-2.583.189-3.747-.44-3.354-2.367-4.985-5.896-4.985-3.528 0-5.457 1.631-5.897 4.985z"/></g><g><path fill="#b3b3b3" d="M16.547 11.566A4.41 4.41 0 0 1 12.14 7.16a4.41 4.41 0 0 1 4.406-4.406 4.41 4.41 0 0 1 4.406 4.406 4.41 4.41 0 0 1-4.406 4.406zm0-7.612a3.21 3.21 0 0 0-3.207 3.207 3.211 3.211 0 0 0 3.207 3.207 3.211 3.211 0 0 0 3.207-3.207 3.21 3.21 0 0 0-3.207-3.207z"/></g><g><path fill="#b3b3b3" d="M18.75 21.91a.6.6 0 1 0 .251 1.173c.351-.074.732-.137 1.131-.187a.598.598 0 0 0 .521-.669.596.596 0 0 0-.669-.522c-.433.054-.849.123-1.234.205z"/></g><g><path fill="#b3b3b3" d="M21.852 22.154a.6.6 0 0 0 .599.574l.026-.001 1.2-.05a.598.598 0 0 0 .572-.626.615.615 0 0 0-.626-.572l-1.197.05a.6.6 0 0 0-.574.625z"/></g><g><path fill="#b3b3b3" d="M13.354 24.914c-.307.233-.625.457-.946.664a.6.6 0 1 0 .654 1.006c.343-.223.686-.462 1.016-.712a.6.6 0 0 0-.723-.958z"/></g><g><path fill="#b3b3b3" d="M26.723 20.959c-.203.142-.466.245-.807.315a.6.6 0 1 0 .243 1.174c.505-.104.915-.27 1.257-.51l.08-.06a.6.6 0 0 0-.724-.957z"/></g><g><path fill="#b3b3b3" d="M5.213 25.648a.599.599 0 1 0-1.158-.313 4.022 4.022 0 0 0-.122 1.406.6.6 0 0 0 1.194-.122 2.678 2.678 0 0 1-.012-.234c0-.05.002-.099.004-.149.01-.194.041-.393.094-.588z"/></g><g><path fill="#b3b3b3" d="M26.71 16.296a3.54 3.54 0 0 0-1.432.109.6.6 0 1 0 .326 1.154 2.33 2.33 0 0 1 .944-.074.6.6 0 1 0 .161-1.189z"/></g><g><path fill="#b3b3b3" d="M27.903 19.268a.6.6 0 0 0 1.146.354 2.539 2.539 0 0 0 .114-.728c0-.28-.052-.562-.153-.834a.6.6 0 0 0-1.125.416c.052.139.08.28.08.417l-.003.07a1.43 1.43 0 0 1-.059.305z"/></g><g><path fill="#b3b3b3" d="M10.384 26.705c-.352.165-.709.318-1.064.456a.598.598 0 0 0 .217 1.16.607.607 0 0 0 .216-.04c.381-.148.764-.313 1.141-.489a.6.6 0 1 0-.51-1.087z"/></g><g><path fill="#b3b3b3" d="M6.018 24.208a.597.597 0 0 0 .287-.073c.172-.094.357-.153.546-.173a.949.949 0 0 1 .244.001.6.6 0 1 0 .157-1.189 2.221 2.221 0 0 0-.534-.005 2.674 2.674 0 0 0-.988.313.598.598 0 0 0 .288 1.126z"/></g><g><path fill="#b3b3b3" d="M5.893 28.911c.13.034.261.06.392.075a3.965 3.965 0 0 0 1.025-.01.6.6 0 0 0-.149-1.19 2.925 2.925 0 0 1-.73.01 1.892 1.892 0 0 1-.236-.046.6.6 0 1 0-.302 1.161z"/></g></g></svg>