<svg xmlns="http://www.w3.org/2000/svg" width="27" height="28" viewBox="0 0 27 28"><g><g><path fill="#ccc" d="M9.872.846A4.225 4.225 0 0 0 6.866 2.09a4.221 4.221 0 0 0-.962 1.479.485.485 0 0 0 .904.347 3.288 3.288 0 0 1 3.064-2.102 3.285 3.285 0 0 1 3.282 3.282.484.484 0 1 0 .97 0A4.255 4.255 0 0 0 9.871.846z"/></g><g><path fill="#ccc" d="M25.714 26.189c-1.086 0-1.601-.35-2.197-.754-.637-.432-1.36-.921-2.741-.921-1.384 0-2.106.489-2.742.92-.296.2-.575.39-.914.527a.484.484 0 0 0 .365.899c.433-.176.768-.403 1.092-.623.597-.404 1.113-.754 2.199-.754 1.085 0 1.6.35 2.197.753.637.431 1.358.92 2.74.92a.484.484 0 1 0 0-.967z"/></g><g><path fill="#ccc" d="M15.836 26.189c-1.086 0-1.601-.35-2.197-.754-.637-.432-1.358-.921-2.741-.921s-2.105.489-2.742.92c-.595.404-1.111.754-2.197.754-1.085 0-1.6-.35-2.196-.753-.636-.432-1.358-.92-2.74-.92a.484.484 0 0 0 0 .968c1.085 0 1.6.35 2.197.754.636.43 1.356.92 2.739.92 1.384 0 2.105-.49 2.74-.92.598-.404 1.113-.754 2.199-.754 1.085 0 1.6.35 2.198.754.636.43 1.357.92 2.74.92a.484.484 0 1 0 0-.968z"/></g><g><path fill="#ccc" d="M25.714 19.112c-1.086 0-1.601-.349-2.197-.753-.637-.432-1.36-.92-2.741-.92-.33 0-.625.026-.911.08a.485.485 0 0 0 .18.951c.226-.043.464-.063.73-.063 1.086 0 1.6.35 2.198.753.637.431 1.358.921 2.74.921a.484.484 0 1 0 0-.969z"/></g><g><path fill="#ccc" d="M4.677 18.887c-.34-.138-.618-.327-.914-.527-.636-.432-1.357-.921-2.74-.921a.484.484 0 0 0 0 .969c1.086 0 1.6.348 2.196.752.324.22.659.448 1.093.623a.486.486 0 0 0 .365-.896z"/></g><g><path fill="#ccc" d="M19.967 2.774a3.263 3.263 0 0 0-.962 2.321v16.231c.455-.203 1.013-.35 1.77-.35 1.383 0 2.105.49 2.741.92.597.405 1.112.754 2.198.754a.485.485 0 0 1 0 .97c-1.383 0-2.105-.49-2.74-.922-.598-.404-1.113-.754-2.199-.754-1.086 0-1.6.35-2.198.754-.637.432-1.357.921-2.74.921-1.384 0-2.106-.489-2.742-.92-.597-.405-1.112-.755-2.198-.755-1.086 0-1.6.35-2.197.754-.637.432-1.357.921-2.74.921-1.384 0-2.105-.489-2.74-.92-.597-.405-1.112-.755-2.198-.755a.484.484 0 0 1 0-.968c1.383 0 2.105.49 2.741.92.53.361.998.676 1.858.741V5.418a.485.485 0 1 1 .97 0V8.89h11.446V5.095c0-1.135.441-2.203 1.245-3.005A4.222 4.222 0 0 1 22.288.845a4.255 4.255 0 0 1 4.25 4.25.484.484 0 1 1-.968 0 3.286 3.286 0 0 0-3.282-3.282c-.877 0-1.7.342-2.32.961zm-1.93 17.033H6.59v2.796c.68-.107 1.1-.389 1.566-.707.637-.43 1.36-.92 2.741-.92 1.383 0 2.105.49 2.742.92.596.405 1.111.754 2.197.754s1.601-.349 2.198-.754c.001 0 .002 0 .003-.002zm0-9.948H6.59v4.006h8.924a.484.484 0 0 1 0 .968H6.59v4.006h11.447v-4.006h-.909a.485.485 0 1 1 0-.968h.91z"/></g></g></svg>