<svg xmlns="http://www.w3.org/2000/svg" width="28" height="30" viewBox="0 0 28 30"><g><g><path fill="#fff" d="M21.715 10.538l-3.622-.526a1.208 1.208 0 0 1-.91-.662l-1.62-3.282c-.758-1.535-2.95-1.534-3.705 0L10.237 9.35a1.206 1.206 0 0 1-.911.662l-1.343.195a.428.428 0 1 0 .123.848l1.344-.196a2.068 2.068 0 0 0 1.556-1.13l1.619-3.281c.444-.898 1.724-.904 2.17 0l1.619 3.28c.302.61.883 1.033 1.557 1.13l3.62.527c.99.144 1.392 1.36.67 2.064l-2.62 2.554a2.072 2.072 0 0 0-.593 1.829c.64 3.773.637 3.634.637 3.823a1.22 1.22 0 0 1-1.38 1.19.428.428 0 1 0-.125.847 2.064 2.064 0 0 0 2.33-2.398c-.635-3.736-.636-3.622-.636-3.811 0-.324.133-.64.365-.866l2.62-2.555c1.218-1.186.565-3.275-1.144-3.524z"/></g><g><path fill="#fff" d="M16.892 22.179c-2.048-1.01-2.352-1.405-3.182-1.405-.861 0-1.164.417-4.2 1.94-.9.473-1.923-.304-1.756-1.275l.618-3.607a2.071 2.071 0 0 0-.593-1.83L5.158 13.45c-.722-.704-.317-1.92.67-2.064l.584-.084a.429.429 0 0 0-.124-.848l-.583.085a2.057 2.057 0 0 0-1.77 2.054c0 .555.223 1.077.626 1.47l2.62 2.555c.274.267.417.666.348 1.07l-.618 3.607c-.291 1.696 1.483 2.974 2.998 2.178l3.238-1.703a1.23 1.23 0 0 1 1.126 0l2.22 1.168a.428.428 0 0 0 .399-.758z"/></g><g><path fill="#fff" d="M13.705 3.416a.428.428 0 0 0 .428-.428V.928a.428.428 0 1 0-.857 0v2.06a.43.43 0 0 0 .43.428z"/></g><g><path fill="#fff" d="M7.306 4.728a.428.428 0 1 0 .74-.428L7.019 2.516a.428.428 0 0 0-.742.428z"/></g><g><path fill="#fff" d="M3.433 8.479L1.65 7.449a.428.428 0 0 0-.43.742l1.785 1.03a.426.426 0 0 0 .213.057c.438 0 .593-.58.215-.799z"/></g><g><path fill="#fff" d="M2.839 20.492L1.055 21.52a.428.428 0 1 0 .429.742l1.783-1.03a.428.428 0 0 0-.428-.741z"/></g><g><path fill="#fff" d="M7.603 24.95a.429.429 0 0 0-.585.155l-1.03 1.784a.428.428 0 1 0 .741.428l1.03-1.784a.426.426 0 0 0-.157-.584z"/></g><g><path fill="#fff" d="M13.372 26.584a.428.428 0 0 0-.428.428v2.06a.428.428 0 1 0 .857 0v-2.06a.43.43 0 0 0-.429-.428z"/></g><g><path fill="#fff" d="M19.771 25.272a.428.428 0 1 0-.74.428l1.029 1.784a.43.43 0 0 0 .741-.428z"/></g><g><path fill="#fff" d="M25.856 21.81l-1.784-1.03a.428.428 0 0 0-.428.74c1.847 1.044 1.794 1.088 1.997 1.088.437 0 .593-.58.215-.799z"/></g><g><path fill="#fff" d="M27.61 14.738h-2.06a.428.428 0 0 0 0 .856h2.06a.428.428 0 1 0 0-.856z"/></g><g><path fill="#fff" d="M24.238 9.508l1.784-1.029a.428.428 0 1 0-.429-.742l-1.783 1.03a.428.428 0 1 0 .428.741z"/></g><g><path fill="#fff" d="M19.689 5.108a.43.43 0 0 0 .37-.214l1.03-1.784a.427.427 0 1 0-.741-.428l-1.03 1.784a.429.429 0 0 0 .37.642z"/></g></g></svg>