<svg xmlns="http://www.w3.org/2000/svg" width="33" height="29" viewBox="0 0 33 29"><g><g><path fill="#b3b3b3" d="M30.402.147h-4.689a.49.49 0 0 0 0 .98h4.69a1.52 1.52 0 0 1 1.516 1.517V26.47a1.52 1.52 0 0 1-1.517 1.517H2.396A1.519 1.519 0 0 1 .88 26.469V2.644c0-.835.68-1.516 1.517-1.516h21.356a.49.49 0 1 0 0-.98H2.396A2.5 2.5 0 0 0-.1 2.645v23.824a2.5 2.5 0 0 0 2.497 2.497h28.006a2.5 2.5 0 0 0 2.497-2.497V2.644A2.5 2.5 0 0 0 30.402.149z"/></g><g><path fill="#b3b3b3" d="M7.85 22.165c.271 0 .49.22.49.49v3.291a.49.49 0 0 1-.49.49H3.897a.49.49 0 0 1-.489-.49v-3.291c0-.27.219-.49.489-.49zm-.49.98H4.388v2.311H7.36z"/></g><g><path fill="#b3b3b3" d="M10.915 23.258a.49.49 0 0 0-.49.49v2.198c0 .27.219.49.49.49h3.952a.49.49 0 0 0 .49-.49v-9.913a.49.49 0 0 0-.49-.49h-3.952a.49.49 0 0 0-.49.49v5.754a.49.49 0 1 0 .98 0v-5.263h2.972v8.932h-2.972v-1.708a.49.49 0 0 0-.49-.49z"/></g><g><path fill="#b3b3b3" d="M21.884 17.824c.27 0 .49.22.49.49v7.632a.49.49 0 0 1-.49.49h-3.953a.49.49 0 0 1-.49-.49v-7.632c0-.27.22-.49.49-.49zm-.49.981h-2.972v6.651h2.972z"/></g><g><path fill="#b3b3b3" d="M28.9 10.982c.271 0 .491.22.491.491v14.473a.49.49 0 0 1-.491.49h-3.952a.49.49 0 0 1-.49-.49V11.473a.49.49 0 0 1 .49-.491zm-.489.981h-2.973v13.493h2.973z"/></g><g><path fill="#b3b3b3" d="M24.852 6.478a2.445 2.445 0 0 1-.394-1.335 2.468 2.468 0 0 1 2.466-2.465 2.468 2.468 0 0 1 2.466 2.465 2.47 2.47 0 0 1-2.466 2.467c-.515 0-.993-.159-1.388-.43l-3.557 3.47c.25.385.395.843.395 1.334a2.47 2.47 0 0 1-2.467 2.467 2.469 2.469 0 0 1-2.45-2.747l-2.42-.787a2.467 2.467 0 0 1-3.426.895l-3.739 4.051c.294.406.468.904.468 1.442a2.47 2.47 0 0 1-2.466 2.467 2.469 2.469 0 0 1-2.467-2.467 2.468 2.468 0 0 1 3.746-2.107l3.74-4.05a2.451 2.451 0 0 1-.469-1.444 2.468 2.468 0 0 1 2.466-2.466 2.47 2.47 0 0 1 2.45 2.747l2.421.786a2.468 2.468 0 0 1 2.146-1.253c.515 0 .993.16 1.388.43zM5.874 18.792c.82 0 1.486-.667 1.486-1.487 0-.819-.667-1.486-1.486-1.486-.82 0-1.487.667-1.487 1.486 0 .82.667 1.487 1.487 1.487zm7.016-7.602c.82 0 1.487-.667 1.487-1.486s-.667-1.486-1.487-1.486c-.819 0-1.486.667-1.486 1.486 0 .82.667 1.486 1.486 1.486zm7.017 2.28c.82 0 1.486-.667 1.486-1.485a1.487 1.487 0 0 0-2.972 0c0 .818.667 1.485 1.486 1.485zm7.017-9.813c-.819 0-1.486.667-1.486 1.486 0 .403.161.768.422 1.035v.001l.002.001c.27.278.646.45 1.062.45.82 0 1.486-.667 1.486-1.487 0-.819-.667-1.486-1.486-1.486z"/></g></g></svg>