<svg xmlns="http://www.w3.org/2000/svg" width="31" height="31" viewBox="0 0 31 31"><g><g><path fill="#fff" d="M15.399 25.793a.605.605 0 1 0 0 1.21.605.605 0 0 0 0-1.21z"/></g><g><path fill="#fff" d="M29.325 21.814c.887.119 1.574.88 1.574 1.8v5.57A1.819 1.819 0 0 1 29.083 31H1.715a1.819 1.819 0 0 1-1.816-1.816v-5.57c0-.92.687-1.681 1.574-1.8V7.872c0-1.002.815-1.817 1.817-1.817h1.816V3.028A.606.606 0 0 1 6.14 2.6l.782.782.783-.782a.605.605 0 0 1 .857 0l.782.782.783-.782a.606.606 0 0 1 1.034.428v3.027h8.476V4.844h-1.816a1.819 1.819 0 0 1-1.817-1.816V1.817C16.004.815 16.819 0 17.821 0h8.476c1.002 0 1.817.815 1.817 1.817v1.21a1.819 1.819 0 0 1-1.817 1.817h-1.816v1.21h3.027c1.002 0 1.817.816 1.817 1.818zM26.297 3.633a.606.606 0 0 0 .606-.605V1.817a.607.607 0 0 0-.606-.606h-8.476a.607.607 0 0 0-.606.606v1.21c0 .335.272.606.606.606zm-3.027 1.21h-2.422v1.212h2.422zm-8.477 16.954h13.321V7.872a.607.607 0 0 0-.606-.606H14.793zm-8.476-7.265H9.95V4.49l-.178.177a.606.606 0 0 1-.856 0l-.783-.783-.782.783a.607.607 0 0 1-.857 0l-.177-.177zm-3.633 7.265h10.899V7.266h-2.422v7.266h.605a.605.605 0 1 1 0 1.21H4.501a.606.606 0 0 1 0-1.21h.605V7.266H3.29a.607.607 0 0 0-.606.606zm27.004 1.817a.606.606 0 0 0-.605-.606H1.715a.607.607 0 0 0-.605.606v5.57c0 .334.272.605.605.605h27.368a.605.605 0 0 0 .605-.605z"/></g><g><path fill="#fff" d="M26.297 9.688c.335 0 .606.27.606.605v2.422a.605.605 0 0 1-.606.605h-8.476a.606.606 0 0 1-.606-.605v-2.422c0-.335.272-.605.606-.605zm-.605 1.21h-7.266v1.211h7.266z"/></g><g><path fill="#fff" d="M19.032 14.531H17.82a.605.605 0 0 0 0 1.211h1.21a.605.605 0 0 0 0-1.21z"/></g><g><path fill="#fff" d="M22.665 14.531h-1.211a.605.605 0 0 0 0 1.211h1.21a.605.605 0 0 0 0-1.21z"/></g><g><path fill="#fff" d="M26.297 14.531h-1.21a.605.605 0 0 0 0 1.211h1.21a.605.605 0 0 0 0-1.21z"/></g><g><path fill="#fff" d="M19.032 16.953H17.82a.605.605 0 0 0 0 1.211h1.21a.605.605 0 0 0 0-1.21z"/></g><g><path fill="#fff" d="M22.665 16.953h-1.211a.605.605 0 0 0 0 1.211h1.21a.605.605 0 0 0 0-1.21z"/></g><g><path fill="#fff" d="M26.297 16.953h-1.21a.605.605 0 0 0 0 1.211h1.21a.605.605 0 0 0 0-1.21z"/></g><g><path fill="#fff" d="M19.032 19.375H17.82a.605.605 0 0 0 0 1.211h1.21a.605.605 0 0 0 0-1.211z"/></g><g><path fill="#fff" d="M22.665 19.375h-1.211a.605.605 0 0 0 0 1.211h1.21a.605.605 0 0 0 0-1.211z"/></g><g><path fill="#fff" d="M26.297 19.375h-1.21a.605.605 0 0 0 0 1.211h1.21a.605.605 0 0 0 0-1.211z"/></g><g><path fill="#fff" d="M12.977 25.793H9.344a.605.605 0 0 0 0 1.211h3.633a.605.605 0 0 0 0-1.211z"/></g><g><path fill="#fff" d="M21.454 25.793H17.82a.605.605 0 0 0 0 1.211h3.633a.605.605 0 0 0 0-1.211z"/></g></g></svg>