<svg xmlns="http://www.w3.org/2000/svg" width="21" height="18" viewBox="0 0 21 18"><g><g><path fill="#767689" d="M2.5 15.041V9.374a.333.333 0 1 0-.667 0v5.667a.333.333 0 0 0 .667 0z"/></g><g><path fill="#767689" d="M19.167 15.041V9.374a.333.333 0 0 0-.667 0v5.667c0 .185.149.333.333.333a.332.332 0 0 0 .334-.333z"/></g><g><path fill="#767689" d="M3.5 9.041a.333.333 0 0 0-.333.333v3a.333.333 0 1 0 .666 0v-3a.333.333 0 0 0-.333-.333z"/></g><g><path fill="#767689" d="M4.5 9.041a.333.333 0 0 0-.333.333v3a.333.333 0 1 0 .666 0v-3a.333.333 0 0 0-.333-.333z"/></g><g><path fill="#767689" d="M6.5 12.375v-3a.333.333 0 1 0-.667 0v3a.333.333 0 0 0 .667 0z"/></g><g><path fill="#767689" d="M7.5 12.375v-3a.333.333 0 1 0-.667 0v3a.333.333 0 0 0 .667 0z"/></g><g><path fill="#767689" d="M8.5 12.375v-3a.333.333 0 1 0-.667 0v3a.333.333 0 0 0 .667 0z"/></g><g><path fill="#767689" d="M10.5 12.375v-3a.333.333 0 1 0-.667 0v3a.333.333 0 0 0 .667 0z"/></g><g><path fill="#767689" d="M12.167 9.375a.332.332 0 0 0-.333-.333.332.332 0 0 0-.334.333v3c0 .185.149.333.334.333a.332.332 0 0 0 .333-.333z"/></g><g><path fill="#767689" d="M13.167 9.375a.332.332 0 0 0-.334-.333.332.332 0 0 0-.333.333v3c0 .185.149.333.333.333a.332.332 0 0 0 .334-.333z"/></g><g><path fill="#767689" d="M14.5 9.041a.333.333 0 0 0-.333.333v3a.333.333 0 1 0 .666 0v-3a.333.333 0 0 0-.333-.333z"/></g><g><path fill="#767689" d="M15.5 9.041a.333.333 0 0 0-.333.333v3a.333.333 0 1 0 .666 0v-3a.333.333 0 0 0-.333-.333z"/></g><g><path fill="#767689" d="M17.5 12.709a.333.333 0 0 0 .333-.333v-3a.333.333 0 1 0-.666 0v3c0 .184.149.333.333.333z"/></g><g><path fill="#767689" d="M1.833 2.708v4.667a.333.333 0 1 0 .668 0V2.708a.333.333 0 0 0-.667 0z"/></g><g><path fill="#767689" d="M19.167 7.375V2.708a.333.333 0 0 0-.667 0v4.667c0 .185.149.333.333.333a.332.332 0 0 0 .334-.333z"/></g><g><path fill="#767689" d="M3.167 7.375c0 .185.149.333.333.333a.332.332 0 0 0 .334-.333V2.708a.333.333 0 0 0-.667 0z"/></g><g><path fill="#767689" d="M4.5 7.708a.333.333 0 0 0 .333-.333V2.708a.332.332 0 1 0-.666 0v4.667c0 .184.149.333.333.333z"/></g><g><path fill="#767689" d="M6.167 7.708a.333.333 0 0 0 .333-.333V2.708a.332.332 0 1 0-.667 0v4.667c0 .184.15.333.333.333z"/></g><g><path fill="#767689" d="M7.167 7.708a.333.333 0 0 0 .333-.333V2.708a.332.332 0 1 0-.667 0v4.667c0 .184.15.333.333.333z"/></g><g><path fill="#767689" d="M8.166 7.708a.333.333 0 0 0 .333-.333V2.708a.332.332 0 1 0-.666 0v4.667c0 .184.15.333.333.333z"/></g><g><path fill="#767689" d="M10.166 7.708a.333.333 0 0 0 .333-.333V2.708a.332.332 0 1 0-.666 0v4.667c0 .184.15.333.333.333z"/></g><g><path fill="#767689" d="M11.834 7.708a.333.333 0 0 0 .333-.333V2.708a.332.332 0 1 0-.666 0v4.667c0 .184.149.333.333.333z"/></g><g><path fill="#767689" d="M12.833 7.708a.333.333 0 0 0 .334-.333V2.708a.332.332 0 0 0-.334-.333.332.332 0 0 0-.333.333v4.667c0 .184.149.333.333.333z"/></g><g><path fill="#767689" d="M14.5 7.708a.333.333 0 0 0 .333-.333V2.708a.332.332 0 1 0-.666 0v4.667c0 .184.149.333.333.333z"/></g><g><path fill="#767689" d="M15.5 7.708a.333.333 0 0 0 .333-.333V2.708a.332.332 0 1 0-.666 0v4.667c0 .184.149.333.333.333z"/></g><g><path fill="#767689" d="M17.5 7.708a.333.333 0 0 0 .333-.333V2.708a.332.332 0 1 0-.666 0v4.667c0 .184.149.333.333.333z"/></g><g><path fill="#767689" d="M3.5 13.709a.333.333 0 0 0-.333.333v.334a.333.333 0 1 0 .666 0v-.334a.333.333 0 0 0-.333-.333z"/></g><g><path fill="#767689" d="M4.5 13.709a.333.333 0 0 0-.333.333v.334a.333.333 0 1 0 .666 0v-.334a.333.333 0 0 0-.333-.333z"/></g><g><path fill="#767689" d="M5.5 13.709a.333.333 0 0 0-.333.333v.334a.333.333 0 1 0 .666 0v-.334a.333.333 0 0 0-.333-.333z"/></g><g><path fill="#767689" d="M6.5 13.709a.333.333 0 0 0-.333.333v.334a.333.333 0 1 0 .666 0v-.334a.333.333 0 0 0-.333-.333z"/></g><g><path fill="#767689" d="M7.5 13.709a.333.333 0 0 0-.333.333v.334a.333.333 0 1 0 .666 0v-.334a.333.333 0 0 0-.333-.333z"/></g><g><path fill="#767689" d="M8.5 13.709a.333.333 0 0 0-.333.333v.334a.333.333 0 1 0 .666 0v-.334a.333.333 0 0 0-.333-.333z"/></g><g><path fill="#767689" d="M9.5 13.709a.333.333 0 0 0-.333.333v.334a.333.333 0 1 0 .666 0v-.334a.333.333 0 0 0-.333-.333z"/></g><g><path fill="#767689" d="M10.5 13.709a.333.333 0 0 0-.333.333v.334a.333.333 0 1 0 .666 0v-.334a.333.333 0 0 0-.333-.333z"/></g><g><path fill="#767689" d="M11.5 13.709a.333.333 0 0 0-.333.333v.334a.333.333 0 1 0 .666 0v-.334a.333.333 0 0 0-.333-.333z"/></g><g><path fill="#767689" d="M12.5 13.709a.333.333 0 0 0-.333.333v.334a.333.333 0 1 0 .666 0v-.334a.333.333 0 0 0-.333-.333z"/></g><g><path fill="#767689" d="M13.5 13.709a.333.333 0 0 0-.333.333v.334a.333.333 0 1 0 .666 0v-.334a.333.333 0 0 0-.333-.333z"/></g><g><path fill="#767689" d="M14.5 13.709a.333.333 0 0 0-.333.333v.334a.333.333 0 1 0 .666 0v-.334a.333.333 0 0 0-.333-.333z"/></g><g><path fill="#767689" d="M15.5 13.709a.333.333 0 0 0-.333.333v.334a.333.333 0 1 0 .666 0v-.334a.333.333 0 0 0-.333-.333z"/></g><g><path fill="#767689" d="M16.5 13.709a.333.333 0 0 0-.333.333v.334a.333.333 0 1 0 .666 0v-.334a.333.333 0 0 0-.333-.333z"/></g><g><path fill="#767689" d="M17.833 14.041a.333.333 0 1 0-.666 0v.333a.333.333 0 1 0 .666 0z"/></g><g><path fill="#767689" d="M3.167 16.709h-2v-1.667a.333.333 0 1 0-.667 0v2.334h2.667a.333.333 0 0 0 0-.667z"/></g><g><path fill="#767689" d="M20.167 14.709a.333.333 0 0 0-.334.333v1.667h-1.666a.333.333 0 1 0 0 .666H20.5v-2.334a.333.333 0 0 0-.333-.333z"/></g><g><path fill="#767689" d="M17.833.375a.333.333 0 1 0 0 .667h2v1.666a.333.333 0 1 0 .667 0V.375z"/></g><g><path fill="#767689" d="M.834 3.042a.333.333 0 0 0 .333-.333V1.04h1.667a.333.333 0 1 0 0-.667H.5v2.334c0 .184.15.333.333.333z"/></g><g><path fill="#767689" d="M20.167 8.041H.834a.333.333 0 1 0 0 .667h19.333a.333.333 0 0 0 0-.667z"/></g></g></svg>