<svg xmlns="http://www.w3.org/2000/svg" width="31" height="32" viewBox="0 0 31 32"><g><g><path fill="#b3b3b3" d="M7.123 26.86l-.707.58a.165.165 0 0 1-.225-.01l-2.219-2.22a.168.168 0 0 1-.012-.226l2.231-2.717c.283-.344.327-.816.111-1.202a10.343 10.343 0 0 1-.914-2.205 1.068 1.068 0 0 0-.927-.777l-3.502-.345a.167.167 0 0 1-.151-.167v-3.139c0-.087.065-.159.151-.168l3.502-.343a1.07 1.07 0 0 0 .927-.779c.218-.766.526-1.508.914-2.204a1.066 1.066 0 0 0-.111-1.202L3.96 7.02a.166.166 0 0 1 .012-.225l2.219-2.22a.165.165 0 0 1 .225-.01l.532.435a.453.453 0 1 0 .576-.7l-.531-.438a1.072 1.072 0 0 0-1.444.07l-2.22 2.22a1.072 1.072 0 0 0-.07 1.444l2.23 2.717a.166.166 0 0 1 .02.184 11.217 11.217 0 0 0-.994 2.398.166.166 0 0 1-.142.122l-3.503.345a1.073 1.073 0 0 0-.971 1.071v3.14c0 .555.418 1.016.972 1.07l3.502.345a.166.166 0 0 1 .142.122c.237.834.571 1.641.994 2.398a.166.166 0 0 1-.02.184l-2.23 2.717a1.072 1.072 0 0 0 .071 1.444l2.219 2.22a1.073 1.073 0 0 0 1.444.07l.707-.58a.455.455 0 0 0-.577-.702z"/></g><g><path fill="#b3b3b3" d="M29.928 13.361l-3.502-.345a.164.164 0 0 1-.142-.122 11.268 11.268 0 0 0-.994-2.398.166.166 0 0 1 .019-.184l2.23-2.717a1.072 1.072 0 0 0-.07-1.444l-2.22-2.219a1.074 1.074 0 0 0-1.444-.07l-2.716 2.23a.164.164 0 0 1-.184.02 11.247 11.247 0 0 0-2.398-.995.165.165 0 0 1-.122-.142l-.345-3.502a1.072 1.072 0 0 0-1.071-.97h-3.14c-.555 0-1.016.416-1.07.97l-.344 3.502a.167.167 0 0 1-.123.142c-.834.237-1.641.572-2.398.994a.164.164 0 0 1-.184-.02l-.667-.547a.453.453 0 1 0-.576.702l.667.548c.344.282.816.326 1.202.11a10.408 10.408 0 0 1 2.204-.914c.43-.122.735-.485.778-.926l.345-3.503a.167.167 0 0 1 .167-.15h3.139c.087 0 .159.064.167.15l.345 3.503c.043.441.348.804.778.926.766.22 1.508.526 2.204.914.386.216.858.172 1.202-.11l2.717-2.23a.167.167 0 0 1 .226.01l2.219 2.22a.167.167 0 0 1 .01.225l-2.23 2.717a1.064 1.064 0 0 0-.11 1.202c.388.696.696 1.438.914 2.204.122.43.486.736.926.78l3.503.343c.086.008.15.08.15.167v3.14a.167.167 0 0 1-.15.166l-3.503.345c-.44.043-.804.348-.926.777a10.322 10.322 0 0 1-.914 2.205c-.216.386-.172.858.11 1.202l2.23 2.717a.169.169 0 0 1-.01.226l-2.22 2.22a.167.167 0 0 1-.225.01l-2.717-2.23a1.062 1.062 0 0 0-1.202-.11c-.696.387-1.438.695-2.204.913-.43.122-.735.486-.778.926l-.345 3.503a.167.167 0 0 1-.167.151h-3.14a.167.167 0 0 1-.166-.15l-.345-3.504a1.067 1.067 0 0 0-.778-.926 10.356 10.356 0 0 1-2.204-.914 1.064 1.064 0 0 0-1.202.111l-.492.403a.455.455 0 0 0 .577.702l.49-.403a.164.164 0 0 1 .185-.02c.757.422 1.564.757 2.398.994.068.02.116.076.123.142l.344 3.503c.054.553.515.971 1.07.971h3.14c.556 0 1.017-.418 1.07-.972l.346-3.502a.166.166 0 0 1 .122-.142 11.247 11.247 0 0 0 2.398-.994.165.165 0 0 1 .184.02l2.716 2.23a1.073 1.073 0 0 0 1.445-.07l2.219-2.22a1.072 1.072 0 0 0 .07-1.444l-2.23-2.717a.166.166 0 0 1-.02-.184c.423-.757.758-1.564.995-2.398a.165.165 0 0 1 .142-.122l3.502-.345c.554-.054.97-.514.97-1.07v-3.14c0-.556-.416-1.016-.97-1.07z"/></g><g><path fill="#b3b3b3" d="M6.408 16.002c0 4.958 4.034 8.991 8.99 8.991a8.999 8.999 0 0 0 5.72-2.054.454.454 0 1 0-.578-.701 8.092 8.092 0 0 1-5.141 1.847c-4.456 0-8.083-3.626-8.083-8.083 0-4.457 3.627-8.083 8.083-8.083 4.457 0 8.083 3.626 8.083 8.083a8.013 8.013 0 0 1-1.643 4.886.452.452 0 0 0 .087.635.452.452 0 0 0 .636-.086 8.915 8.915 0 0 0 1.828-5.435c0-4.958-4.033-8.991-8.991-8.991-4.957 0-8.991 4.033-8.991 8.991z"/></g><g><path fill="#b3b3b3" d="M15.399 9.057a6.953 6.953 0 0 1 6.945 6.945 6.952 6.952 0 0 1-6.945 6.944c-3.83 0-6.945-3.115-6.945-6.944a6.953 6.953 0 0 1 6.945-6.945zm0 12.981a6.043 6.043 0 0 0 6.037-6.036 6.044 6.044 0 0 0-6.037-6.037 6.044 6.044 0 0 0-6.037 6.037 6.043 6.043 0 0 0 6.037 6.036z"/></g><g><path fill="#b3b3b3" d="M15.398 5.19h.004a.454.454 0 0 0 .004-.908h-.01a.454.454 0 0 0-.005.908z"/></g><g><path fill="#b3b3b3" d="M15.4 26.814h-.004a.453.453 0 0 0-.004.907h.011a.454.454 0 0 0 .003-.907z"/></g><g><path fill="#b3b3b3" d="M26.66 16.459h.005c.249 0 .452-.2.454-.45v-.006a.455.455 0 0 0-.45-.459h-.004a.454.454 0 0 0-.454.45v.007a.454.454 0 0 0 .45.458z"/></g><g><path fill="#b3b3b3" d="M4.138 15.544h-.004a.454.454 0 0 0-.454.45V16a.454.454 0 0 0 .45.458h.004c.249 0 .452-.2.454-.45v-.006a.456.456 0 0 0-.45-.46z"/></g></g></svg>