<svg xmlns="http://www.w3.org/2000/svg" width="21" height="22" viewBox="0 0 21 22"><g><g><path fill="#e6e6e6" d="M19.12.193H6.16a.316.316 0 0 0 0 .634h12.96a.786.786 0 1 1 0 1.572h-3.014a.316.316 0 1 0 0 .633h2.643l-.76 4.885H3.088l-.76-4.885H14.84a.316.316 0 1 0 0-.633H1.96a.787.787 0 0 1 0-1.572h2.934a.317.317 0 0 0 0-.634H1.958C1.176.193.538.83.538 1.612c0 .689.493 1.264 1.144 1.393l.822 5.277a.314.314 0 0 0 .312.268h.024l.15 1.374a.316.316 0 1 0 .63-.069L3.477 8.55H17.6l-.795 7.264H8.378a.317.317 0 1 0 0 .633h8.024l-.277 2.53a.316.316 0 0 0 .315.352c.16 0 .297-.12.315-.282l.285-2.6h.048a.315.315 0 0 0 .314-.282l.835-7.615h.024a.314.314 0 0 0 .312-.268l.821-5.277A1.42 1.42 0 0 0 19.12.193z"/></g><g><path fill="#e6e6e6" d="M16.335 19.964a.316.316 0 0 0-.349.28l-.102.93H5.193l-.518-4.728H7.11a.316.316 0 1 0 0-.633H4.273l-.513-4.69a.316.316 0 1 0-.63.069l.545 4.972a.316.316 0 0 0 .314.283h.048l.557 5.078c.017.16.153.282.315.282h11.259a.316.316 0 0 0 .315-.282l.133-1.21a.316.316 0 0 0-.281-.35z"/></g></g></svg>