<svg xmlns="http://www.w3.org/2000/svg" width="36" height="33" viewBox="0 0 36 33"><g><g><path fill="#f15a24" d="M36 33L0 0h33.177A2.823 2.823 0 0 1 36 2.823z"/></g><g><path fill="#fed370" d="M29.08 11.064a.615.615 0 0 0-.178.547l.525 3.063a.62.62 0 0 1-.898.652L25.78 13.88a.618.618 0 0 0-.576 0l-2.75 1.446a.618.618 0 0 1-.897-.652l.077-.451.448-2.612a.616.616 0 0 0-.178-.547L19.68 8.896a.619.619 0 0 1 .343-1.055l3.075-.447a.618.618 0 0 0 .465-.338l1.375-2.786a.618.618 0 0 1 1.11 0l1.374 2.786c.09.182.264.309.466.338l.95.138 2.124.309c.508.074.71.697.343 1.055z"/></g></g></svg>