<svg xmlns="http://www.w3.org/2000/svg" width="29" height="33" viewBox="0 0 29 33"><g><g><path fill="#b3b3b3" d="M1.935 31.66H.843V4.368a.471.471 0 1 0-.943 0v27.766c0 .26.212.47.473.47h1.564a.472.472 0 0 0 0-.942z"/></g><g><path fill="#b3b3b3" d="M28.427.396H.371A.472.472 0 0 0-.1.868v1.508a.472.472 0 1 0 .944 0V1.339h27.112v30.322H3.901a.472.472 0 0 0 0 .943h24.526c.26 0 .472-.211.472-.472V.868a.472.472 0 0 0-.472-.472z"/></g><g><path fill="#b3b3b3" d="M6.603 5.693H4.212a.471.471 0 0 0 0 .943h2.39a.471.471 0 1 0 0-.943z"/></g><g><path fill="#b3b3b3" d="M6.603 8.639H4.212a.471.471 0 0 0 0 .943h2.39a.471.471 0 1 0 0-.943z"/></g><g><path fill="#b3b3b3" d="M6.603 11.585H4.212a.471.471 0 0 0 0 .942h2.39a.471.471 0 1 0 0-.942z"/></g><g><path fill="#b3b3b3" d="M6.603 14.53H4.212a.471.471 0 0 0 0 .943h2.39a.471.471 0 1 0 0-.943z"/></g><g><path fill="#b3b3b3" d="M6.603 17.476H4.212a.471.471 0 0 0 0 .943h2.39a.471.471 0 1 0 0-.943z"/></g><g><path fill="#b3b3b3" d="M6.603 20.422H4.212a.471.471 0 0 0 0 .943h2.39a.471.471 0 1 0 0-.943z"/></g><g><path fill="#b3b3b3" d="M6.603 23.368H4.212a.471.471 0 0 0 0 .943h2.39a.471.471 0 1 0 0-.943z"/></g><g><path fill="#b3b3b3" d="M6.603 26.314H4.212a.471.471 0 0 0 0 .943h2.39a.471.471 0 1 0 0-.944z"/></g><g><path fill="#b3b3b3" d="M24.523 5.693h-2.39a.472.472 0 1 0 0 .943h2.39a.471.471 0 1 0 0-.943z"/></g><g><path fill="#b3b3b3" d="M24.523 8.639h-2.39a.472.472 0 1 0 0 .943h2.39a.471.471 0 1 0 0-.943z"/></g><g><path fill="#b3b3b3" d="M24.523 11.585h-2.39a.472.472 0 1 0 0 .942h2.39a.471.471 0 1 0 0-.942z"/></g><g><path fill="#b3b3b3" d="M24.523 14.53h-2.39a.472.472 0 1 0 0 .943h2.39a.471.471 0 1 0 0-.943z"/></g><g><path fill="#b3b3b3" d="M24.523 17.476h-2.39a.472.472 0 1 0 0 .943h2.39a.471.471 0 1 0 0-.943z"/></g><g><path fill="#b3b3b3" d="M24.523 20.422h-2.39a.472.472 0 1 0 0 .943h2.39a.471.471 0 1 0 0-.943z"/></g><g><path fill="#b3b3b3" d="M24.523 23.368h-2.39a.472.472 0 1 0 0 .943h2.39a.471.471 0 1 0 0-.943z"/></g><g><path fill="#b3b3b3" d="M24.523 26.314h-2.39a.472.472 0 1 0 0 .943h2.39a.471.471 0 1 0 0-.944z"/></g><g><path fill="#b3b3b3" d="M19.64 10.728a.543.543 0 0 1 0 1.012l-7.951 3.18v10.304h1.118a.545.545 0 1 1 0 1.09H9.48a.544.544 0 1 1 0-1.09h1.118V7.19a.545.545 0 1 1 1.09 0v.357zm-1.67.506L11.689 8.72v5.025z"/></g></g></svg>