<svg xmlns="http://www.w3.org/2000/svg" width="19" height="29" viewBox="0 0 19 29"><g><g><path fill="#ccc" d="M7.616 28.095a13.737 13.737 0 0 1 1.067-7.913l1.974-4.329a6.165 6.165 0 0 1-2.02-.922l-1.975 4.33a13.773 13.773 0 0 1-5.276 5.992.554.554 0 0 1-.813-.667L6.033 9.96a6.105 6.105 0 0 1 5.836-6.127L13.439.394a.555.555 0 0 1 .736-.274l4.04 1.842a.558.558 0 0 1 .275.736L16.92 6.135a6.11 6.11 0 0 1 .774 6.328 6.041 6.041 0 0 1-1.576 2.096L8.652 28.272a.556.556 0 0 1-1.036-.177zm6.644-12.443a6.158 6.158 0 0 1-2.461.374l-2.106 4.617a12.621 12.621 0 0 0-1.141 5.491zm2.988-12.91l-1.01-.46-1.07 2.345c.329.188.638.405.925.648zm-3.03-1.382l-1.155 2.533c.372.057.737.15 1.094.274l1.07-2.346zM2.254 23.26a12.658 12.658 0 0 0 3.399-4.46l2.106-4.617a6.13 6.13 0 0 1-1.331-2.104zm5.34-15.404a5 5 0 0 0 2.472 6.62 5.003 5.003 0 0 0 6.619-2.474c1.14-2.5.04-5.47-2.473-6.618a5 5 0 0 0-6.618 2.472z"/></g><g><path fill="#ccc" d="M11.262 13.19a.554.554 0 0 1-.735.274.553.553 0 0 1-.275-.735.556.556 0 0 1 1.01.461z"/></g><g><path fill="#ccc" d="M9.614 8.778a2.777 2.777 0 0 1 3.677-1.373 2.779 2.779 0 0 1 1.373 3.677 2.757 2.757 0 0 1-1.598 1.462.555.555 0 0 0 .372 1.046 3.852 3.852 0 0 0 2.236-2.047 3.892 3.892 0 0 0-1.922-5.149 3.893 3.893 0 0 0-5.149 1.923 3.86 3.86 0 0 0-.08 3.031.556.556 0 0 0 1.033-.405 2.755 2.755 0 0 1 .058-2.165z"/></g></g></svg>